<svg width="276" height="80" viewBox="0 0 276 80" fill="none" xmlns="http://www.w3.org/2000/svg">
<path d="M109.56 17.952H104.136V27.936C104.136 28.768 104.344 29.376 104.76 29.76C105.176 30.144 105.784 30.368 106.584 30.432C107.384 30.464 108.376 30.448 109.56 30.384V36C105.304 36.48 102.296 36.08 100.536 34.8C98.808 33.52 97.944 31.232 97.944 27.936V17.952H93.768V12H97.944V7.152L104.136 5.28V12H109.56V17.952ZM120.493 16.128C121.069 14.592 122.013 13.44 123.325 12.672C124.669 11.904 126.157 11.52 127.789 11.52V18.432C125.901 18.208 124.205 18.592 122.701 19.584C121.229 20.576 120.493 22.224 120.493 24.528V36H114.301V12H120.493V16.128ZM148.76 12H154.952V36H148.76V33.168C146.904 35.504 144.296 36.672 140.936 36.672C137.736 36.672 134.984 35.456 132.68 33.024C130.408 30.56 129.271 27.552 129.271 24C129.271 20.448 130.408 17.456 132.68 15.024C134.984 12.56 137.736 11.328 140.936 11.328C144.296 11.328 146.904 12.496 148.76 14.832V12ZM137.336 28.896C138.584 30.144 140.168 30.768 142.088 30.768C144.008 30.768 145.592 30.144 146.84 28.896C148.12 27.616 148.76 25.984 148.76 24C148.76 22.016 148.12 20.4 146.84 19.152C145.592 17.872 144.008 17.232 142.088 17.232C140.168 17.232 138.584 17.872 137.336 19.152C136.088 20.4 135.464 22.016 135.464 24C135.464 25.984 136.088 27.616 137.336 28.896ZM166.091 18.816C166.091 19.456 166.507 19.984 167.339 20.4C168.203 20.784 169.243 21.136 170.459 21.456C171.675 21.744 172.891 22.128 174.107 22.608C175.323 23.056 176.347 23.824 177.179 24.912C178.043 26 178.475 27.36 178.475 28.992C178.475 31.456 177.547 33.36 175.691 34.704C173.867 36.016 171.579 36.672 168.827 36.672C163.899 36.672 160.539 34.768 158.747 30.96L164.123 27.936C164.827 30.016 166.395 31.056 168.827 31.056C171.035 31.056 172.139 30.368 172.139 28.992C172.139 28.352 171.707 27.84 170.843 27.456C170.011 27.04 168.987 26.672 167.771 26.352C166.555 26.032 165.339 25.632 164.123 25.152C162.907 24.672 161.867 23.92 161.003 22.896C160.171 21.84 159.755 20.528 159.755 18.96C159.755 16.592 160.619 14.736 162.347 13.392C164.107 12.016 166.283 11.328 168.875 11.328C170.827 11.328 172.603 11.776 174.203 12.672C175.803 13.536 177.067 14.784 177.995 16.416L172.715 19.296C171.947 17.664 170.667 16.848 168.875 16.848C168.075 16.848 167.403 17.024 166.859 17.376C166.347 17.728 166.091 18.208 166.091 18.816ZM195.801 11.328C198.425 11.328 200.585 12.208 202.281 13.968C204.009 15.728 204.873 18.16 204.873 21.264V36H198.681V22.032C198.681 20.432 198.249 19.216 197.385 18.384C196.521 17.52 195.369 17.088 193.929 17.088C192.329 17.088 191.049 17.584 190.089 18.576C189.129 19.568 188.649 21.056 188.649 23.04V36H182.457V2.4H188.649V14.688C190.153 12.448 192.537 11.328 195.801 11.328ZM114.216 41H120.264V63.848C120.264 67.56 119.032 70.392 116.568 72.344C114.136 74.296 111.192 75.272 107.736 75.272C105.144 75.272 102.856 74.776 100.872 73.784C98.92 72.792 97.416 71.336 96.36 69.416L101.64 66.392C102.856 68.632 104.952 69.752 107.928 69.752C109.88 69.752 111.416 69.24 112.536 68.216C113.656 67.192 114.216 65.736 114.216 63.848V61.256C112.392 63.688 109.832 64.904 106.536 64.904C103.144 64.904 100.296 63.72 97.992 61.352C95.72 58.952 94.584 56.04 94.584 52.616C94.584 49.224 95.736 46.328 98.04 43.928C100.344 41.528 103.176 40.328 106.536 40.328C109.832 40.328 112.392 41.544 114.216 43.976V41ZM102.648 57.368C103.928 58.584 105.544 59.192 107.496 59.192C109.448 59.192 111.048 58.584 112.296 57.368C113.576 56.12 114.216 54.536 114.216 52.616C114.216 50.728 113.576 49.176 112.296 47.96C111.048 46.712 109.448 46.088 107.496 46.088C105.544 46.088 103.928 46.712 102.648 47.96C101.4 49.176 100.776 50.728 100.776 52.616C100.776 54.536 101.4 56.12 102.648 57.368ZM132.071 45.128C132.647 43.592 133.591 42.44 134.903 41.672C136.247 40.904 137.735 40.52 139.367 40.52V47.432C137.479 47.208 135.783 47.592 134.279 48.584C132.807 49.576 132.071 51.224 132.071 53.528V65H125.879V41H132.071V45.128ZM162.546 62.024C160.082 64.456 157.074 65.672 153.522 65.672C149.97 65.672 146.962 64.456 144.498 62.024C142.066 59.56 140.85 56.552 140.85 53C140.85 49.448 142.066 46.456 144.498 44.024C146.962 41.56 149.97 40.328 153.522 40.328C157.074 40.328 160.082 41.56 162.546 44.024C165.01 46.456 166.242 49.448 166.242 53C166.242 56.552 165.01 59.56 162.546 62.024ZM148.866 57.752C150.114 59 151.666 59.624 153.522 59.624C155.378 59.624 156.93 59 158.178 57.752C159.426 56.504 160.05 54.92 160.05 53C160.05 51.08 159.426 49.496 158.178 48.248C156.93 47 155.378 46.376 153.522 46.376C151.666 46.376 150.114 47 148.866 48.248C147.65 49.496 147.042 51.08 147.042 53C147.042 54.92 147.65 56.504 148.866 57.752ZM186.438 41H192.63V65H186.438V62.312C184.934 64.552 182.55 65.672 179.286 65.672C176.662 65.672 174.486 64.792 172.758 63.032C171.062 61.272 170.214 58.84 170.214 55.736V41H176.406V54.968C176.406 56.568 176.838 57.8 177.702 58.664C178.566 59.496 179.718 59.912 181.158 59.912C182.758 59.912 184.038 59.416 184.998 58.424C185.958 57.432 186.438 55.944 186.438 53.96V41ZM211.645 40.328C214.269 40.328 216.429 41.208 218.125 42.968C219.853 44.728 220.717 47.16 220.717 50.264V65H214.525V51.032C214.525 49.432 214.093 48.216 213.229 47.384C212.365 46.52 211.213 46.088 209.773 46.088C208.173 46.088 206.893 46.584 205.933 47.576C204.973 48.568 204.493 50.056 204.493 52.04V65H198.301V41H204.493V43.688C205.997 41.448 208.381 40.328 211.645 40.328ZM244.196 31.4H250.388V65H244.196V62.168C242.372 64.504 239.78 65.672 236.42 65.672C233.188 65.672 230.42 64.456 228.116 62.024C225.844 59.56 224.708 56.552 224.708 53C224.708 49.448 225.844 46.456 228.116 44.024C230.42 41.56 233.188 40.328 236.42 40.328C239.78 40.328 242.372 41.496 244.196 43.832V31.4ZM232.772 57.896C234.052 59.144 235.652 59.768 237.572 59.768C239.492 59.768 241.076 59.144 242.324 57.896C243.572 56.616 244.196 54.984 244.196 53C244.196 51.016 243.572 49.4 242.324 48.152C241.076 46.872 239.492 46.232 237.572 46.232C235.652 46.232 234.052 46.872 232.772 48.152C231.524 49.4 230.9 51.016 230.9 53C230.9 54.984 231.524 56.616 232.772 57.896ZM261.575 47.816C261.575 48.456 261.991 48.984 262.823 49.4C263.687 49.784 264.727 50.136 265.943 50.456C267.159 50.744 268.375 51.128 269.591 51.608C270.807 52.056 271.831 52.824 272.663 53.912C273.527 55 273.959 56.36 273.959 57.992C273.959 60.456 273.031 62.36 271.175 63.704C269.351 65.016 267.063 65.672 264.311 65.672C259.383 65.672 256.023 63.768 254.231 59.96L259.607 56.936C260.311 59.016 261.879 60.056 264.311 60.056C266.519 60.056 267.623 59.368 267.623 57.992C267.623 57.352 267.191 56.84 266.327 56.456C265.495 56.04 264.471 55.672 263.255 55.352C262.039 55.032 260.823 54.632 259.607 54.152C258.391 53.672 257.351 52.92 256.487 51.896C255.655 50.84 255.239 49.528 255.239 47.96C255.239 45.592 256.103 43.736 257.831 42.392C259.591 41.016 261.767 40.328 264.359 40.328C266.311 40.328 268.087 40.776 269.687 41.672C271.287 42.536 272.551 43.784 273.479 45.416L268.199 48.296C267.431 46.664 266.151 45.848 264.359 45.848C263.559 45.848 262.887 46.024 262.343 46.376C261.831 46.728 261.575 47.208 261.575 47.816Z" fill="white"/>
<path d="M15 16V13H11.5232L12.0323 16.4393L15 16ZM66 16L68.9677 16.4393L69.4768 13H66V16ZM58.3019 68V71C59.7891 71 61.0518 69.9105 61.2695 68.4393L58.3019 68ZM22.6981 68L19.7305 68.4393C19.9482 69.9105 21.2109 71 22.6981 71V68ZM15 19L66 19V13L15 13V19ZM63.0323 15.5607L55.3342 67.5607L61.2695 68.4393L68.9677 16.4393L63.0323 15.5607ZM58.3019 65H22.6981V71H58.3019V65ZM25.6658 67.5607L17.9677 15.5607L12.0323 16.4393L19.7305 68.4393L25.6658 67.5607Z" fill="url(#paint0_linear_46_303)"/>
<circle cx="40" cy="40" r="37" stroke="url(#paint1_linear_46_303)" stroke-width="6"/>
<path d="M46 45V35" stroke="url(#paint2_linear_46_303)" stroke-width="6" stroke-linecap="round"/>
<path d="M34 45V35" stroke="url(#paint3_linear_46_303)" stroke-width="6" stroke-linecap="round"/>
<defs>
<linearGradient id="paint0_linear_46_303" x1="40.5" y1="51.4545" x2="40.5" y2="16" gradientUnits="userSpaceOnUse">
<stop stop-color="#FF416C"/>
<stop offset="1" stop-color="#FF4B2B"/>
</linearGradient>
<linearGradient id="paint1_linear_46_303" x1="40" y1="0" x2="40" y2="80" gradientUnits="userSpaceOnUse">
<stop stop-color="#FF416C"/>
<stop offset="1" stop-color="#FF4B2B"/>
</linearGradient>
<linearGradient id="paint2_linear_46_303" x1="45.5" y1="41.8182" x2="45.5" y2="35" gradientUnits="userSpaceOnUse">
<stop stop-color="#FF4B2B"/>
<stop offset="1" stop-color="#FF416C"/>
</linearGradient>
<linearGradient id="paint3_linear_46_303" x1="33.5" y1="41.8182" x2="33.5" y2="35" gradientUnits="userSpaceOnUse">
<stop stop-color="#FF4B2B"/>
<stop offset="1" stop-color="#FF416C"/>
</linearGradient>
</defs>
</svg>
